<svg width="135" height="41" viewBox="0 0 135 41" fill="none" xmlns="http://www.w3.org/2000/svg">
<path d="M124.249 0.199227H10.7566C10.3429 0.199227 9.9342 0.199227 9.5216 0.201227C9.17621 0.203227 8.83358 0.209037 8.48488 0.213927C7.72733 0.221828 6.97157 0.280903 6.22416 0.390637C5.4778 0.502759 4.75482 0.714142 4.07967 1.01764C3.40534 1.3237 2.7892 1.72139 2.25357 2.1963C1.71514 2.66986 1.26632 3.21724 0.924356 3.81739C0.581453 4.41634 0.343683 5.05817 0.219258 5.72071C0.0936495 6.38241 0.0260586 7.05175 0.0170916 7.72271C0.00662229 8.02931 0.00551669 8.33693 0 8.64357V31.7578C0.00551669 32.0683 0.00662229 32.3691 0.0170916 32.6797C0.0260614 33.3507 0.0936522 34.02 0.219258 34.6816C0.343339 35.3446 0.581124 35.9868 0.924356 36.5859C1.26616 37.1841 1.71505 37.7293 2.25357 38.2002C2.78717 38.6772 3.40371 39.0752 4.07967 39.3789C4.75481 39.6832 5.47772 39.8959 6.22416 40.0097C6.9717 40.1186 7.72738 40.1777 8.48488 40.1865C8.83358 40.1933 9.17621 40.1972 9.5216 40.1972C9.93419 40.1992 10.343 40.1992 10.7566 40.1992H124.249C124.655 40.1992 125.067 40.1992 125.472 40.1972C125.816 40.1972 126.169 40.1933 126.512 40.1865C127.268 40.1782 128.023 40.119 128.769 40.0097C129.518 39.8951 130.243 39.6825 130.921 39.3789C131.597 39.075 132.213 38.6771 132.746 38.2002C133.283 37.7274 133.733 37.1827 134.079 36.5859C134.42 35.9863 134.655 35.3442 134.777 34.6816C134.903 34.0199 134.973 33.3507 134.987 32.6797C134.991 32.3691 134.991 32.0683 134.991 31.7578C135 31.3945 135 31.0332 135 30.664V9.73536C135 9.36915 135 9.00587 134.991 8.64357C134.991 8.33693 134.991 8.02931 134.987 7.72267C134.973 7.05165 134.903 6.38246 134.777 5.72067C134.655 5.05851 134.419 4.41673 134.079 3.81735C133.383 2.61442 132.278 1.63525 130.921 1.01755C130.243 0.714794 129.518 0.503467 128.769 0.390547C128.023 0.280329 127.269 0.221234 126.512 0.213787C126.169 0.208907 125.816 0.203047 125.472 0.201097C125.067 0.199097 124.655 0.199097 124.249 0.199097V0.199227Z" fill="#A6A6A6"/>
<path d="M9.43001 39.3272C9.08569 39.3272 8.74969 39.3233 8.40807 39.3165C7.70037 39.3083 6.99433 39.2538 6.29574 39.1534C5.64433 39.0541 5.0133 38.8694 4.42345 38.6054C3.839 38.3435 3.30594 38.0002 2.84469 37.5886C2.37676 37.1817 1.98718 36.7099 1.6914 36.1918C1.39236 35.6702 1.18541 35.1112 1.07775 34.5342C0.961494 33.9142 0.898592 33.2873 0.889592 32.6588C0.882427 32.4479 0.873047 31.7455 0.873047 31.7455V8.64014C0.873047 8.64014 0.883037 7.94858 0.889648 7.74541C0.898266 7.11796 0.960802 6.492 1.07671 5.87295C1.18457 5.29435 1.39168 4.73373 1.69088 4.2105C1.98557 3.69271 2.37299 3.22052 2.8381 2.81226C3.30269 2.40011 3.83745 2.05502 4.42289 1.78957C5.01139 1.5264 5.64123 1.343 6.29132 1.24552C6.99221 1.14407 7.7007 1.08921 8.41085 1.08143L9.43056 1.06921H125.57L126.602 1.08192C127.306 1.08932 128.008 1.14368 128.702 1.24454C129.359 1.34325 129.995 1.52793 130.59 1.79251C131.763 2.32746 132.718 3.17382 133.32 4.21294C133.614 4.73256 133.818 5.2886 133.924 5.86221C134.042 6.48634 134.107 7.11722 134.121 7.74981C134.124 8.03307 134.124 8.33733 134.124 8.64014C134.133 9.01521 134.133 9.37222 134.133 9.73215V30.6652C134.133 31.0286 134.133 31.3832 134.124 31.7406C134.124 32.0659 134.124 32.3639 134.12 32.6705C134.107 33.2918 134.042 33.9114 133.927 34.5244C133.821 35.1056 133.615 35.669 133.316 36.1948C133.018 36.7073 132.631 37.175 132.169 37.5807C131.707 37.9946 131.173 38.34 130.587 38.6035C129.994 38.8695 129.358 39.0549 128.702 39.1534C128.004 39.2544 127.297 39.3089 126.59 39.3165C126.259 39.3233 125.912 39.3272 125.576 39.3272L124.35 39.3292L9.43001 39.3272Z" fill="black"/>
<path d="M32.7973 20.4998C32.8081 19.6651 33.0298 18.8468 33.4418 18.1208C33.8538 17.3948 34.4428 16.7849 35.1539 16.3477C34.7021 15.7026 34.1062 15.1716 33.4134 14.7971C32.7205 14.4225 31.9499 14.2147 31.1627 14.1901C29.4835 14.0138 27.8555 15.1949 26.9998 15.1949C26.1275 15.1949 24.81 14.2076 23.3913 14.2367C22.4736 14.2664 21.5793 14.5332 20.7954 15.0113C20.0115 15.4894 19.3649 16.1623 18.9184 16.9646C16.9844 20.313 18.427 25.2341 20.2796 27.9407C21.2065 29.266 22.2898 30.7465 23.7072 30.694C25.0943 30.6365 25.6123 29.8095 27.2866 29.8095C28.9454 29.8095 29.4314 30.694 30.8776 30.6606C32.366 30.6365 33.3038 29.3294 34.1981 27.9915C34.8641 27.0471 35.3766 26.0034 35.7166 24.899C34.8518 24.5332 34.1139 23.9211 33.5948 23.1388C33.0757 22.3565 32.7983 21.4387 32.7973 20.4998Z" fill="white"/>
<path d="M30.0659 12.4101C30.8774 11.4358 31.2772 10.1837 31.1804 8.91943C29.9406 9.04965 28.7953 9.64221 27.9728 10.579C27.5707 11.0367 27.2627 11.5691 27.0664 12.1459C26.8702 12.7227 26.7896 13.3325 26.8291 13.9404C27.4493 13.9468 28.0628 13.8124 28.6234 13.5473C29.1841 13.2822 29.6773 12.8934 30.0659 12.4101Z" fill="white"/>
<path d="M50.3311 27.3389H45.5977L44.4609 30.6953H42.4561L46.9395 18.2773H49.0225L53.5059 30.6953H51.4668L50.3311 27.3389ZM46.0879 25.7901H49.8399L47.9903 20.3428H47.9385L46.0879 25.7901Z" fill="white"/>
<path d="M63.1885 26.169C63.1885 28.9825 61.6826 30.7901 59.4102 30.7901C58.8345 30.8202 58.262 30.6876 57.7582 30.4075C57.2544 30.1274 56.8397 29.711 56.5616 29.2061H56.5186V33.6905H54.6602V21.6417H56.459V23.1475H56.4932C56.7841 22.6451 57.2059 22.2309 57.7135 21.949C58.2211 21.6672 58.7957 21.5282 59.376 21.547C61.6738 21.547 63.1885 23.3634 63.1885 26.169ZM61.2783 26.169C61.2783 24.336 60.3311 23.1309 58.8858 23.1309C57.4658 23.1309 56.5108 24.3614 56.5108 26.169C56.5108 27.9933 57.4658 29.2149 58.8858 29.2149C60.3311 29.2149 61.2783 28.0186 61.2783 26.169Z" fill="white"/>
<path d="M73.1533 26.169C73.1533 28.9825 71.6475 30.7901 69.375 30.7901C68.7994 30.8202 68.2269 30.6876 67.7231 30.4075C67.2193 30.1274 66.8046 29.711 66.5264 29.2061H66.4834V33.6905H64.625V21.6417H66.4238V23.1475H66.458C66.749 22.6451 67.1707 22.2309 67.6783 21.949C68.186 21.6672 68.7605 21.5282 69.3408 21.547C71.6387 21.547 73.1533 23.3634 73.1533 26.169ZM71.2432 26.169C71.2432 24.336 70.2959 23.1309 68.8506 23.1309C67.4307 23.1309 66.4756 24.3614 66.4756 26.169C66.4756 27.9932 67.4307 29.2149 68.8506 29.2149C70.2959 29.2149 71.2432 28.0186 71.2432 26.169H71.2432Z" fill="white"/>
<path d="M79.7393 27.2354C79.877 28.4669 81.0733 29.2754 82.708 29.2754C84.2744 29.2754 85.4014 28.4668 85.4014 27.3565C85.4014 26.3926 84.7217 25.8155 83.1123 25.4199L81.503 25.0322C79.2227 24.4815 78.1641 23.415 78.1641 21.6846C78.1641 19.542 80.0313 18.0703 82.6826 18.0703C85.3066 18.0703 87.1055 19.542 87.166 21.6846H85.29C85.1777 20.4453 84.1533 19.6973 82.6563 19.6973C81.1592 19.6973 80.1348 20.4541 80.1348 21.5557C80.1348 22.4336 80.7891 22.9502 82.3897 23.3457L83.7578 23.6816C86.3057 24.2842 87.3643 25.3076 87.3643 27.124C87.3643 29.4472 85.5137 30.9023 82.5703 30.9023C79.8164 30.9023 77.957 29.4814 77.8369 27.2353L79.7393 27.2354Z" fill="white"/>
<path d="M91.375 19.499V21.6416H93.0967V23.1133H91.375V28.1045C91.375 28.8799 91.7197 29.2412 92.4766 29.2412C92.6809 29.2376 92.885 29.2233 93.0879 29.1982V30.6611C92.7476 30.7247 92.4018 30.7535 92.0557 30.747C90.2227 30.747 89.5078 30.0586 89.5078 28.3027V23.1133H88.1914V21.6416H89.5078V19.499H91.375Z" fill="white"/>
<path d="M94.0938 26.1689C94.0938 23.3203 95.7715 21.5303 98.3877 21.5303C101.013 21.5303 102.683 23.3203 102.683 26.1689C102.683 29.0254 101.021 30.8076 98.3877 30.8076C95.7548 30.8076 94.0938 29.0254 94.0938 26.1689ZM100.789 26.1689C100.789 24.2148 99.8935 23.0615 98.3877 23.0615C96.8818 23.0615 95.9873 24.2236 95.9873 26.1689C95.9873 28.1309 96.8818 29.2754 98.3877 29.2754C99.8935 29.2754 100.789 28.1309 100.789 26.1689H100.789Z" fill="white"/>
<path d="M104.215 21.6416H105.987V23.1826H106.03C106.15 22.7013 106.432 22.276 106.829 21.9781C107.225 21.6802 107.712 21.5279 108.208 21.5469C108.422 21.5461 108.636 21.5694 108.845 21.6162V23.3545C108.574 23.2719 108.292 23.2339 108.01 23.2422C107.74 23.2312 107.471 23.2788 107.221 23.3817C106.971 23.4846 106.746 23.6403 106.562 23.8382C106.378 24.0361 106.239 24.2715 106.155 24.5281C106.071 24.7848 106.043 25.0567 106.073 25.3252V30.6953H104.215L104.215 21.6416Z" fill="white"/>
<path d="M117.413 28.0361C117.163 29.6797 115.562 30.8076 113.515 30.8076C110.881 30.8076 109.246 29.043 109.246 26.2119C109.246 23.3721 110.89 21.5303 113.437 21.5303C115.941 21.5303 117.517 23.251 117.517 25.9961V26.6328H111.122V26.7451C111.093 27.0783 111.134 27.414 111.244 27.7298C111.355 28.0457 111.531 28.3344 111.761 28.577C111.991 28.8195 112.271 29.0103 112.581 29.1366C112.89 29.2629 113.223 29.3219 113.558 29.3096C113.997 29.3507 114.437 29.249 114.814 29.0196C115.191 28.7901 115.484 28.4452 115.648 28.0361L117.413 28.0361ZM111.131 25.334H115.657C115.674 25.0344 115.628 24.7346 115.524 24.4534C115.419 24.1722 115.257 23.9156 115.049 23.6999C114.84 23.4841 114.59 23.3138 114.312 23.1995C114.035 23.0853 113.737 23.0297 113.437 23.0361C113.134 23.0343 112.834 23.0925 112.554 23.2072C112.274 23.322 112.019 23.491 111.805 23.7047C111.591 23.9183 111.421 24.1723 111.305 24.4519C111.189 24.7316 111.13 25.0314 111.131 25.334V25.334Z" fill="white"/>
<path d="M45.8545 8.93023C46.2441 8.90227 46.6351 8.96113 46.9992 9.10257C47.3633 9.244 47.6915 9.46448 47.9601 9.7481C48.2286 10.0317 48.4309 10.3714 48.5523 10.7427C48.6737 11.114 48.7112 11.5076 48.6621 11.8951C48.6621 13.8013 47.6318 14.8971 45.8545 14.8971H43.6992V8.93023H45.8545ZM44.626 14.0532H45.751C46.0294 14.0699 46.308 14.0242 46.5665 13.9196C46.8251 13.815 47.057 13.654 47.2455 13.4485C47.434 13.2429 47.5743 12.9979 47.6562 12.7313C47.738 12.4647 47.7594 12.1832 47.7187 11.9072C47.7564 11.6324 47.7329 11.3526 47.6498 11.088C47.5667 10.8233 47.426 10.5803 47.238 10.3764C47.0499 10.1724 46.8191 10.0126 46.562 9.90839C46.3049 9.80416 46.028 9.75807 45.751 9.77344H44.626V14.0532Z" fill="white"/>
<path d="M49.7093 12.6436C49.681 12.3477 49.7148 12.0491 49.8086 11.7671C49.9025 11.485 50.0542 11.2257 50.2542 11.0057C50.4541 10.7857 50.6978 10.6099 50.9697 10.4897C51.2415 10.3694 51.5355 10.3073 51.8328 10.3073C52.1301 10.3073 52.4241 10.3694 52.6959 10.4897C52.9678 10.6099 53.2115 10.7857 53.4114 11.0057C53.6114 11.2257 53.7631 11.485 53.857 11.7671C53.9508 12.0491 53.9846 12.3477 53.9563 12.6436C53.9852 12.9399 53.9517 13.2388 53.8581 13.5214C53.7645 13.8039 53.6129 14.0637 53.4129 14.2841C53.2129 14.5045 52.969 14.6807 52.6969 14.8012C52.4248 14.9217 52.1304 14.984 51.8328 14.984C51.5352 14.984 51.2408 14.9217 50.9687 14.8012C50.6966 14.6807 50.4527 14.5045 50.2527 14.2841C50.0527 14.0637 49.9011 13.8039 49.8075 13.5214C49.7139 13.2388 49.6804 12.9399 49.7093 12.6436ZM53.0423 12.6436C53.0423 11.6676 52.6038 11.0968 51.8343 11.0968C51.0618 11.0968 50.6273 11.6676 50.6273 12.6436C50.6273 13.6275 51.0618 14.1939 51.8343 14.1939C52.6038 14.1939 53.0423 13.6236 53.0423 12.6436H53.0423Z" fill="white"/>
<path d="M59.6016 14.897H58.6797L57.749 11.5806H57.6787L56.752 14.897H55.8389L54.5977 10.394H55.499L56.3057 13.83H56.3721L57.2979 10.394H58.1504L59.0762 13.83H59.1465L59.9492 10.394H60.8379L59.6016 14.897Z" fill="white"/>
<path d="M61.8818 10.3941H62.7373V11.1094H62.8037C62.9164 10.8525 63.1064 10.6371 63.3472 10.4933C63.5881 10.3495 63.8679 10.2844 64.1475 10.3072C64.3666 10.2907 64.5866 10.3237 64.7912 10.4038C64.9958 10.4839 65.1797 10.609 65.3294 10.7699C65.4791 10.9307 65.5907 11.1232 65.6559 11.333C65.7211 11.5428 65.7382 11.7646 65.7061 11.982V14.897H64.8174V12.2051C64.8174 11.4815 64.5029 11.1216 63.8457 11.1216C63.6969 11.1147 63.5484 11.14 63.4104 11.1958C63.2723 11.2517 63.148 11.3367 63.0459 11.4451C62.9437 11.5535 62.8663 11.6827 62.8187 11.8238C62.7712 11.9649 62.7547 12.1147 62.7705 12.2627V14.897H61.8818L61.8818 10.3941Z" fill="white"/>
<path d="M67.1221 8.63623H68.0107V14.897H67.1221V8.63623Z" fill="white"/>
<path d="M69.2463 12.6436C69.2181 12.3477 69.2519 12.0491 69.3458 11.767C69.4397 11.4849 69.5914 11.2256 69.7914 11.0056C69.9914 10.7856 70.2351 10.6098 70.507 10.4895C70.7788 10.3693 71.0728 10.3071 71.3701 10.3071C71.6674 10.3071 71.9614 10.3693 72.2333 10.4895C72.5052 10.6098 72.7489 10.7856 72.9489 11.0056C73.1488 11.2256 73.3006 11.4849 73.3945 11.767C73.4883 12.0491 73.5222 12.3477 73.4939 12.6436C73.5227 12.9398 73.4892 13.2388 73.3956 13.5213C73.302 13.8039 73.1503 14.0637 72.9503 14.2841C72.7503 14.5045 72.5064 14.6806 72.2342 14.8011C71.9621 14.9217 71.6678 14.9839 71.3701 14.9839C71.0725 14.9839 70.7782 14.9217 70.506 14.8011C70.2339 14.6806 69.99 14.5045 69.79 14.2841C69.59 14.0637 69.4383 13.8039 69.3446 13.5213C69.251 13.2388 69.2175 12.9398 69.2463 12.6436ZM72.5793 12.6436C72.5793 11.6675 72.1409 11.0967 71.3713 11.0967C70.5989 11.0967 70.1644 11.6675 70.1644 12.6436C70.1644 13.6275 70.5989 14.1939 71.3713 14.1939C72.1409 14.1939 72.5794 13.6236 72.5794 12.6436H72.5793Z" fill="white"/>
<path d="M74.4297 13.6235C74.4297 12.813 75.0332 12.3457 76.1045 12.2793L77.3242 12.209V11.8203C77.3242 11.3447 77.0098 11.0762 76.4023 11.0762C75.9063 11.0762 75.5625 11.2583 75.4639 11.5767H74.6035C74.6943 10.8032 75.4219 10.3071 76.4434 10.3071C77.5723 10.3071 78.209 10.8691 78.209 11.8203V14.897H77.3535V14.2642H77.2832C77.1405 14.4912 76.9401 14.6762 76.7025 14.8004C76.4648 14.9246 76.1985 14.9835 75.9307 14.9712C75.7416 14.9908 75.5506 14.9707 75.3698 14.912C75.1891 14.8533 75.0226 14.7573 74.8812 14.6304C74.7398 14.5034 74.6265 14.3482 74.5488 14.1748C74.471 14.0014 74.4304 13.8136 74.4297 13.6235ZM77.3242 13.2388V12.8623L76.2246 12.9326C75.6045 12.9741 75.3232 13.185 75.3232 13.582C75.3232 13.9873 75.6748 14.2231 76.1582 14.2231C76.2999 14.2375 76.443 14.2232 76.579 14.1811C76.715 14.139 76.8411 14.07 76.9499 13.9781C77.0587 13.8863 77.1479 13.7735 77.2122 13.6465C77.2765 13.5195 77.3146 13.3808 77.3242 13.2388Z" fill="white"/>
<path d="M79.376 12.6436C79.376 11.2207 80.1074 10.3194 81.2451 10.3194C81.5265 10.3064 81.8058 10.3738 82.0504 10.5137C82.2949 10.6536 82.4945 10.8602 82.626 11.1094H82.6924V8.63623H83.5811V14.897H82.7295V14.1855H82.6592C82.5176 14.433 82.311 14.6371 82.0617 14.7755C81.8125 14.914 81.5301 14.9817 81.2451 14.9712C80.0996 14.9712 79.376 14.0698 79.376 12.6436ZM80.294 12.6436C80.294 13.5986 80.7442 14.1734 81.4971 14.1734C82.2461 14.1734 82.709 13.5904 82.709 12.6475C82.709 11.709 82.2412 11.1177 81.4971 11.1177C80.749 11.1177 80.2939 11.6963 80.2939 12.6436H80.294Z" fill="white"/>
<path d="M87.2581 12.6436C87.2298 12.3477 87.2636 12.0491 87.3575 11.7671C87.4513 11.485 87.6031 11.2257 87.803 11.0057C88.003 10.7857 88.2467 10.6099 88.5185 10.4897C88.7904 10.3694 89.0844 10.3073 89.3816 10.3073C89.6789 10.3073 89.9729 10.3694 90.2447 10.4897C90.5166 10.6099 90.7603 10.7857 90.9602 11.0057C91.1602 11.2257 91.3119 11.485 91.4058 11.7671C91.4996 12.0491 91.5335 12.3477 91.5052 12.6436C91.534 12.9399 91.5006 13.2388 91.407 13.5214C91.3134 13.8039 91.1617 14.0637 90.9617 14.2841C90.7617 14.5045 90.5178 14.6807 90.2457 14.8012C89.9736 14.9217 89.6793 14.984 89.3816 14.984C89.084 14.984 88.7897 14.9217 88.5175 14.8012C88.2454 14.6807 88.0015 14.5045 87.8015 14.2841C87.6015 14.0637 87.4499 13.8039 87.3563 13.5214C87.2627 13.2388 87.2292 12.9399 87.2581 12.6436ZM90.5911 12.6436C90.5911 11.6676 90.1526 11.0968 89.3831 11.0968C88.6106 11.0968 88.1761 11.6676 88.1761 12.6436C88.1761 13.6275 88.6107 14.1939 89.3831 14.1939C90.1526 14.1939 90.5911 13.6236 90.5911 12.6436Z" fill="white"/>
<path d="M92.6973 10.3941H93.5527V11.1094H93.6191C93.7318 10.8525 93.9218 10.6371 94.1627 10.4933C94.4035 10.3495 94.6833 10.2844 94.9629 10.3072C95.182 10.2907 95.402 10.3237 95.6066 10.4038C95.8112 10.4839 95.9951 10.609 96.1448 10.7699C96.2945 10.9307 96.4061 11.1232 96.4713 11.333C96.5365 11.5428 96.5536 11.7646 96.5215 11.982V14.897H95.6328V12.2051C95.6328 11.4815 95.3184 11.1216 94.6611 11.1216C94.5124 11.1147 94.3639 11.14 94.2258 11.1958C94.0878 11.2517 93.9634 11.3367 93.8613 11.4451C93.7592 11.5535 93.6817 11.6827 93.6342 11.8238C93.5866 11.9649 93.5702 12.1147 93.5859 12.2627V14.897H92.6973V10.3941Z" fill="white"/>
<path d="M101.544 9.27295V10.4145H102.52V11.1631H101.544V13.4785C101.544 13.9502 101.738 14.1567 102.181 14.1567C102.294 14.1564 102.407 14.1495 102.52 14.1362V14.8765C102.36 14.905 102.198 14.9202 102.036 14.9219C101.048 14.9219 100.654 14.5742 100.654 13.706V11.163H99.9395V10.4145H100.654V9.27295H101.544Z" fill="white"/>
<path d="M103.732 8.63623H104.613V11.1177H104.684C104.802 10.8584 104.997 10.6418 105.243 10.4974C105.488 10.3531 105.773 10.288 106.057 10.311C106.275 10.2992 106.492 10.3356 106.695 10.4176C106.897 10.4997 107.079 10.6253 107.227 10.7857C107.375 10.946 107.486 11.1371 107.552 11.3452C107.617 11.5533 107.636 11.7734 107.607 11.9897V14.897H106.718V12.209C106.718 11.4897 106.383 11.1255 105.755 11.1255C105.602 11.113 105.449 11.134 105.305 11.187C105.161 11.2401 105.031 11.3239 104.923 11.4326C104.815 11.5414 104.732 11.6724 104.68 11.8165C104.628 11.9607 104.608 12.1144 104.621 12.2671V14.897H103.732L103.732 8.63623Z" fill="white"/>
<path d="M112.79 13.6811C112.669 14.0926 112.407 14.4486 112.051 14.6868C111.694 14.9249 111.265 15.0301 110.839 14.9838C110.542 14.9917 110.247 14.9348 109.975 14.8173C109.702 14.6998 109.458 14.5244 109.26 14.3032C109.063 14.0821 108.915 13.8205 108.828 13.5367C108.742 13.2529 108.718 12.9536 108.758 12.6596C108.719 12.3647 108.743 12.0648 108.83 11.7801C108.916 11.4955 109.063 11.2327 109.26 11.0096C109.457 10.7865 109.699 10.6084 109.971 10.4872C110.243 10.366 110.537 10.3045 110.835 10.3071C112.088 10.3071 112.843 11.1631 112.843 12.5771V12.8872H109.664V12.937C109.65 13.1022 109.671 13.2685 109.725 13.4253C109.779 13.582 109.865 13.7258 109.978 13.8472C110.091 13.9687 110.228 14.0652 110.38 14.1306C110.533 14.196 110.697 14.2288 110.863 14.227C111.076 14.2525 111.291 14.2142 111.482 14.117C111.672 14.0198 111.83 13.8681 111.934 13.6811L112.79 13.6811ZM109.664 12.2299H111.938C111.949 12.0788 111.929 11.927 111.878 11.7843C111.827 11.6416 111.747 11.5111 111.642 11.4012C111.538 11.2914 111.412 11.2046 111.272 11.1464C111.132 11.0882 110.981 11.06 110.83 11.0634C110.676 11.0615 110.523 11.0904 110.381 11.1483C110.239 11.2062 110.109 11.2921 110.001 11.4008C109.892 11.5095 109.806 11.6389 109.748 11.7813C109.691 11.9237 109.662 12.0762 109.664 12.2299H109.664Z" fill="white"/>
</svg>
