<svg width="1209" height="686" viewBox="0 0 1209 686" fill="none" xmlns="http://www.w3.org/2000/svg">
<path d="M0 672.545L61.256 617.331C71.3551 608.228 83.3446 601.007 96.5399 596.081C109.735 591.155 123.878 588.619 138.16 588.62C152.442 588.62 166.585 591.156 179.78 596.084C192.974 601.011 204.963 608.232 215.062 617.336L250.151 648.969C251.911 650.556 254.002 651.816 256.303 652.675C258.604 653.534 261.07 653.977 263.561 653.977C266.051 653.977 268.517 653.535 270.818 652.676C273.119 651.817 275.21 650.558 276.971 648.97L277.318 648.657C279.146 647.025 280.599 645.083 281.592 642.943C282.586 640.803 283.101 638.507 283.108 636.188C283.115 633.868 282.614 631.57 281.634 629.425C280.654 627.281 279.213 625.331 277.395 623.69C265.633 613.09 184.331 539.809 166.041 523.324C156.829 515.022 149.522 505.165 144.536 494.317C139.55 483.468 136.984 471.841 136.984 460.099C136.984 448.357 139.549 436.73 144.534 425.882C149.519 415.033 156.826 405.176 166.037 396.873C184.641 380.105 209.872 370.684 236.181 370.684C262.49 370.684 287.721 380.105 306.324 396.873L646.171 703.2L720.998 694.01L597.283 582.497C584.443 570.924 574.258 557.184 567.309 542.062C560.36 526.94 556.783 510.733 556.783 494.365C556.783 477.998 560.36 461.79 567.309 446.669C574.258 431.547 584.443 417.807 597.283 406.233C610.123 394.66 625.367 385.479 642.143 379.215C658.92 372.952 676.901 369.728 695.059 369.728C713.218 369.728 731.199 372.952 747.975 379.215C764.752 385.479 779.995 394.66 792.835 406.233L982.01 576.75C985.956 580.306 991.309 582.305 996.889 582.305C1002.47 582.305 1007.82 580.306 1011.77 576.75C1015.71 573.193 1017.93 568.368 1017.93 563.338C1017.93 558.308 1015.71 553.484 1011.77 549.927L731.618 297.409C724.361 290.867 718.604 283.101 714.676 274.554C710.749 266.007 708.727 256.846 708.727 247.595C708.727 238.344 710.749 229.183 714.676 220.636C718.604 212.089 724.361 204.323 731.618 197.781C746.276 184.57 766.155 177.148 786.883 177.148C807.611 177.148 827.49 184.57 842.148 197.781L1036.21 372.705C1038.31 374.592 1040.79 376.089 1043.53 377.11C1046.26 378.131 1049.19 378.657 1052.15 378.657C1055.11 378.657 1058.05 378.131 1060.78 377.11C1063.52 376.089 1066 374.592 1068.1 372.705C1070.19 370.818 1071.85 368.578 1072.98 366.112C1074.12 363.647 1074.7 361.004 1074.7 358.335C1074.7 355.667 1074.12 353.024 1072.98 350.559C1071.85 348.093 1070.19 345.853 1068.1 343.966L1064.7 340.904C1033.75 313.006 1016.36 275.17 1016.36 235.717C1016.36 196.264 1033.75 158.427 1064.7 130.53L1209.45 0.0595703V756.775" fill="#B8E3DB" fill-opacity="0.2"/>
</svg>
