<svg width="135" height="41" viewBox="0 0 135 41" fill="none" xmlns="http://www.w3.org/2000/svg">
<g clip-path="url(#clip0_1695_9640)">
<path d="M130 0.199219H5C2.23858 0.199219 0 2.43779 0 5.19922V35.1992C0 37.9606 2.23858 40.1992 5 40.1992H130C132.761 40.1992 135 37.9606 135 35.1992V5.19922C135 2.43779 132.761 0.199219 130 0.199219Z" fill="black"/>
<path d="M130 0.999263C131.114 1.00055 132.181 1.44349 132.968 2.23091C133.756 3.01833 134.199 4.08592 134.2 5.19946V35.1995C134.199 36.313 133.756 37.3806 132.968 38.168C132.181 38.9554 131.114 39.3984 130 39.3997H5C3.88645 39.3984 2.81888 38.9554 2.0315 38.168C1.24412 37.3806 0.801231 36.313 0.8 35.1995V5.19946C0.801212 4.08591 1.24409 3.0183 2.03148 2.23088C2.81886 1.44346 3.88644 1.00053 5 0.999263H130ZM130 0.199463H5C3.67511 0.203341 2.40559 0.73137 1.46875 1.66821C0.531908 2.60506 0.0038781 3.87457 0 5.19946L0 35.1995C0.0038781 36.5244 0.531908 37.7939 1.46875 38.7307C2.40559 39.6676 3.67511 40.1956 5 40.1995H130C131.325 40.1956 132.594 39.6676 133.531 38.7307C134.468 37.7939 134.996 36.5244 135 35.1995V5.19946C134.996 3.87457 134.468 2.60506 133.531 1.66821C132.594 0.73137 131.325 0.203341 130 0.199463Z" fill="#A6A6A6"/>
<path d="M47.4183 10.4426C47.4365 10.8095 47.3798 11.1763 47.2516 11.5206C47.1235 11.865 46.9267 12.1796 46.6731 12.4455C46.3889 12.7402 46.0456 12.9717 45.6658 13.1246C45.286 13.2776 44.8782 13.3487 44.469 13.3332C44.0572 13.3368 43.6488 13.2582 43.2679 13.1018C42.8869 12.9454 42.5411 12.7144 42.2507 12.4225C41.9603 12.1305 41.7312 11.7834 41.5768 11.4017C41.4225 11.0199 41.346 10.6111 41.3519 10.1994C41.346 9.78759 41.4225 9.37881 41.5769 8.99703C41.7313 8.61525 41.9604 8.26816 42.2508 7.97617C42.5412 7.68418 42.887 7.45317 43.2679 7.2967C43.6488 7.14024 44.0572 7.06148 44.469 7.06506C44.8924 7.06378 45.3115 7.14938 45.7005 7.31656C46.0617 7.463 46.3833 7.6927 46.639 7.98696L46.1116 8.51476C45.9106 8.27821 45.658 8.091 45.3732 7.96756C45.0884 7.84413 44.779 7.78778 44.469 7.80286C44.1569 7.80124 43.8477 7.86263 43.5599 7.98334C43.2721 8.10405 43.0116 8.28161 42.7941 8.50537C42.5765 8.72913 42.4064 8.99449 42.2938 9.28557C42.1812 9.57664 42.1286 9.88745 42.139 10.1994C42.1315 10.6666 42.263 11.1254 42.5167 11.5178C42.7704 11.9102 43.1349 12.2184 43.564 12.4034C43.9931 12.5883 44.4674 12.6417 44.9269 12.5567C45.3864 12.4717 45.8102 12.2522 46.1448 11.926C46.4527 11.5942 46.6311 11.1629 46.6477 10.7106H44.469V9.98986H47.3763C47.4038 10.1392 47.4178 10.2907 47.4183 10.4426Z" fill="white" stroke="white" stroke-width="0.2" stroke-miterlimit="10"/>
<path d="M52.0273 7.93664H49.2949V9.83894H51.7588V10.5597H49.2949V12.462H52.0273V13.1993H48.5244V7.19934H52.0273V7.93664Z" fill="white" stroke="white" stroke-width="0.2" stroke-miterlimit="10"/>
<path d="M55.2784 13.1993H54.5069V7.93664H52.8311V7.19934H56.9542V7.93664H55.2784V13.1993Z" fill="white" stroke="white" stroke-width="0.2" stroke-miterlimit="10"/>
<path d="M59.9375 13.1993V7.19934H60.708V13.1993H59.9375Z" fill="white" stroke="white" stroke-width="0.2" stroke-miterlimit="10"/>
<path d="M64.1279 13.1993H63.3564V7.93664H61.6807V7.19934H65.8037V7.93664H64.1279V13.1993Z" fill="white" stroke="white" stroke-width="0.2" stroke-miterlimit="10"/>
<path d="M73.6092 12.424C73.0252 13.0062 72.2341 13.3332 71.4095 13.3332C70.5848 13.3332 69.7938 13.0062 69.2098 12.424C68.9209 12.1313 68.6937 11.7836 68.5419 11.4014C68.3901 11.0193 68.3167 10.6105 68.326 10.1994C68.3167 9.78825 68.3901 9.37946 68.5419 8.99729C68.6937 8.61513 68.9209 8.26739 69.2098 7.97476C69.4984 7.68603 69.8412 7.45706 70.2185 7.30096C70.5957 7.14486 71.0001 7.0647 71.4083 7.06506C71.8166 7.06543 72.2208 7.14631 72.5978 7.30307C72.9748 7.45984 73.3171 7.68942 73.6053 7.97866C73.8944 8.27052 74.122 8.61748 74.2744 8.99895C74.4269 9.38042 74.5013 9.78863 74.493 10.1994C74.5021 10.6104 74.4285 11.0192 74.2767 11.4013C74.1249 11.7834 73.8979 12.1312 73.6092 12.424ZM69.7791 11.9216C70.2116 12.3534 70.7978 12.5959 71.409 12.5959C72.0202 12.5959 72.6064 12.3534 73.0389 11.9216C73.2607 11.6945 73.4341 11.4248 73.5488 11.1288C73.6634 10.8328 73.7169 10.5166 73.7059 10.1994C73.7169 9.88212 73.6634 9.56595 73.5488 9.26994C73.4341 8.97394 73.2607 8.70424 73.0389 8.47716C72.6064 8.04537 72.0202 7.80285 71.409 7.80285C70.7978 7.80285 70.2116 8.04537 69.7791 8.47716C69.5576 8.70442 69.3844 8.97417 69.2699 9.27015C69.1555 9.56613 69.1021 9.88221 69.1131 10.1994C69.1021 10.5165 69.1555 10.8326 69.2699 11.1286C69.3844 11.4246 69.5576 11.6943 69.7791 11.9216Z" fill="white" stroke="white" stroke-width="0.2" stroke-miterlimit="10"/>
<path d="M75.5752 13.1993V7.19934H76.5137L79.4297 11.8668H79.4629L79.4297 10.7105V7.19934H80.2012V13.1993H79.3965L76.3457 8.30574H76.3125L76.3457 9.46204V13.1993H75.5752Z" fill="white" stroke="white" stroke-width="0.2" stroke-miterlimit="10"/>
<path d="M68.1354 21.9509C67.2949 21.9541 66.4741 22.2063 65.7768 22.6755C65.0795 23.1448 64.5369 23.8102 64.2175 24.5876C63.898 25.3651 63.8161 26.2198 63.982 27.0437C64.148 27.8677 64.5543 28.624 65.1498 29.2172C65.7452 29.8104 66.5031 30.2139 67.3277 30.3767C68.1523 30.5395 69.0066 30.4543 69.7829 30.1319C70.5591 29.8095 71.2224 29.2644 71.689 28.5653C72.1557 27.8662 72.4047 27.0445 72.4047 26.204C72.4129 25.6418 72.308 25.0837 72.0962 24.5629C71.8844 24.0421 71.5699 23.5693 71.1716 23.1725C70.7733 22.7756 70.2992 22.463 69.7776 22.2532C69.256 22.0433 68.6975 21.9405 68.1354 21.9509ZM68.1354 28.7817C67.6178 28.8186 67.101 28.6988 66.6524 28.438C66.2038 28.1771 65.8442 27.7872 65.6203 27.319C65.3964 26.8509 65.3186 26.3261 65.3971 25.8132C65.4756 25.3002 65.7068 24.8228 66.0604 24.443C66.4141 24.0632 66.8739 23.7987 67.3799 23.6839C67.886 23.5691 68.4149 23.6093 68.8978 23.7994C69.3807 23.9894 69.7952 24.3204 70.0874 24.7493C70.3795 25.1782 70.5358 25.6851 70.5358 26.204C70.5515 26.5319 70.5015 26.8595 70.3886 27.1677C70.2758 27.476 70.1024 27.7585 69.8787 27.9987C69.6551 28.2389 69.3856 28.4319 69.0862 28.5664C68.7868 28.7008 68.4635 28.7741 68.1354 28.7817ZM58.822 21.9509C57.9815 21.9541 57.1607 22.2062 56.4634 22.6755C55.7661 23.1448 55.2234 23.8101 54.904 24.5876C54.5845 25.365 54.5026 26.2197 54.6685 27.0437C54.8344 27.8676 55.2408 28.624 55.8362 29.2172C56.4317 29.8104 57.1896 30.2139 58.0142 30.3767C58.8388 30.5395 59.6931 30.4543 60.4694 30.132C61.2456 29.8096 61.9089 29.2644 62.3755 28.5653C62.8422 27.8662 63.0912 27.0445 63.0912 26.204C63.0994 25.6419 62.9945 25.0838 62.7827 24.563C62.5709 24.0422 62.2565 23.5693 61.8582 23.1725C61.4598 22.7757 60.9858 22.463 60.4642 22.2532C59.9426 22.0433 59.3841 21.9405 58.822 21.9509ZM58.822 28.7817C58.3044 28.8186 57.7876 28.6988 57.339 28.438C56.8904 28.1771 56.5308 27.7872 56.3069 27.319C56.083 26.8509 56.0052 26.3261 56.0837 25.8132C56.1622 25.3002 56.3934 24.8228 56.747 24.443C57.1007 24.0632 57.5605 23.7987 58.0665 23.6839C58.5726 23.5691 59.1015 23.6093 59.5844 23.7994C60.0673 23.9894 60.4818 24.3204 60.774 24.7493C61.0661 25.1782 61.2224 25.6851 61.2224 26.204C61.2381 26.5319 61.1881 26.8595 61.0752 27.1678C60.9624 27.476 60.789 27.7585 60.5654 27.9987C60.3417 28.2389 60.0722 28.4319 59.7728 28.5664C59.4734 28.7009 59.1501 28.7741 58.822 28.7817ZM47.7432 23.2559V25.0602H52.0609C51.9986 25.9065 51.6523 26.707 51.0781 27.3318C50.6454 27.7729 50.1251 28.1183 49.5507 28.3458C48.9762 28.5733 48.3605 28.6779 47.7432 28.6528C46.4812 28.6357 45.2766 28.1224 44.3902 27.2239C43.5038 26.3254 43.0068 25.1141 43.0068 23.8519C43.0068 22.5898 43.5038 21.3784 44.3902 20.4799C45.2766 19.5814 46.4812 19.0681 47.7432 19.051C48.9554 19.0352 50.1249 19.4983 50.9976 20.3398L52.2703 19.0671C51.6748 18.4776 50.9677 18.013 50.1903 17.7003C49.4129 17.3877 48.581 17.2335 47.7432 17.2466C46.8677 17.2339 45.9984 17.3953 45.1858 17.7215C44.3732 18.0478 43.6336 18.5323 43.01 19.1469C42.3864 19.7615 41.8911 20.494 41.5531 21.3017C41.2151 22.1095 41.041 22.9763 41.041 23.8519C41.041 24.7275 41.2151 25.5944 41.5531 26.4021C41.8911 27.2099 42.3864 27.9423 43.01 28.5569C43.6336 29.1716 44.3732 29.6561 45.1858 29.9823C45.9984 30.3085 46.8677 30.47 47.7432 30.4572C48.5986 30.4927 49.4519 30.3459 50.2462 30.0264C51.0406 29.707 51.758 29.2223 52.3508 28.6045C53.4032 27.4558 53.9641 25.9407 53.9136 24.3836C53.9177 24.0055 53.8853 23.6278 53.8168 23.2559H47.7432ZM93.0515 24.6574C92.7959 23.8871 92.3093 23.214 91.6579 22.7298C91.0065 22.2456 90.2218 21.9737 89.4105 21.9509C88.864 21.9543 88.3239 22.0685 87.8228 22.2865C87.3217 22.5046 86.8701 22.8219 86.4951 23.2195C86.1201 23.617 85.8297 24.0865 85.6413 24.5995C85.4529 25.1124 85.3705 25.6583 85.3991 26.204C85.3868 26.7632 85.4873 27.3191 85.6946 27.8386C85.902 28.3581 86.2119 28.8304 86.6059 29.2274C86.9999 29.6244 87.4698 29.9379 87.9877 30.1492C88.5056 30.3605 89.0607 30.4653 89.62 30.4572C90.3206 30.4611 91.0113 30.2909 91.6299 29.9619C92.2485 29.6329 92.7757 29.1554 93.1642 28.5723L91.7143 27.6057C91.4971 27.9665 91.1898 28.2645 90.8227 28.4707C90.4555 28.6769 90.0411 28.784 89.62 28.7817C89.1867 28.7983 88.7584 28.6843 88.3907 28.4545C88.023 28.2247 87.7328 27.8897 87.5578 27.4929L93.2449 25.1408L93.0515 24.6574ZM87.2518 26.0752C87.2317 25.7657 87.2737 25.4552 87.3751 25.1621C87.4765 24.8689 87.6353 24.5989 87.8423 24.3679C88.0493 24.1368 88.3003 23.9494 88.5807 23.8166C88.861 23.6838 89.165 23.6082 89.4749 23.5942C89.7976 23.573 90.1194 23.6472 90.4001 23.8077C90.6809 23.9681 90.9082 24.2076 91.0538 24.4964L87.2518 26.0752ZM82.628 30.1994H84.4968V17.6978H82.628V30.1994ZM79.567 22.9014H79.5026C79.2185 22.5927 78.8717 22.3483 78.4855 22.1843C78.0993 22.0204 77.6826 21.9408 77.2632 21.9509C76.1665 21.9976 75.1302 22.4661 74.3707 23.2586C73.6112 24.0511 73.1872 25.1064 73.1872 26.2041C73.1872 27.3018 73.6112 28.357 74.3707 29.1495C75.1302 29.942 76.1665 30.4106 77.2632 30.4572C77.6843 30.4684 78.1027 30.3878 78.4895 30.2208C78.8762 30.0539 79.2219 29.8047 79.5026 29.4906H79.567V30.1028C79.567 31.73 78.6971 32.5999 77.2954 32.5999C76.8282 32.5887 76.375 32.4387 75.9934 32.169C75.6119 31.8993 75.3192 31.5221 75.1528 31.0855L73.5256 31.7622C73.8323 32.5089 74.3549 33.147 75.0265 33.5947C75.6982 34.0425 76.4882 34.2795 77.2954 34.2754C79.4865 34.2754 81.3392 32.9866 81.3392 29.845V22.2086H79.567V22.9014ZM77.4244 28.7817C76.7784 28.727 76.1766 28.4317 75.738 27.9543C75.2994 27.477 75.056 26.8523 75.056 26.2041C75.056 25.5558 75.2994 24.9312 75.738 24.4538C76.1766 23.9765 76.7784 23.6812 77.4244 23.6264C77.7457 23.6421 78.0606 23.7223 78.3503 23.8623C78.64 24.0023 78.8986 24.1992 79.1105 24.4412C79.3225 24.6833 79.4836 24.9655 79.5841 25.2712C79.6847 25.5768 79.7227 25.8995 79.6959 26.2201C79.721 26.5388 79.6816 26.8592 79.58 27.1622C79.4785 27.4653 79.3168 27.7447 79.1048 27.9839C78.8927 28.223 78.6346 28.4169 78.3459 28.554C78.0571 28.6911 77.7437 28.7686 77.4244 28.7817ZM101.805 17.698H97.3342V30.1994H99.1999V25.463H101.805C102.333 25.492 102.861 25.413 103.357 25.2309C103.854 25.0489 104.308 24.7676 104.691 24.4042C105.075 24.0409 105.381 23.6031 105.59 23.1176C105.799 22.6321 105.907 22.1091 105.907 21.5805C105.907 21.052 105.799 20.529 105.59 20.0435C105.381 19.558 105.075 19.1202 104.691 18.7568C104.308 18.3934 103.854 18.1121 103.357 17.9301C102.861 17.7481 102.333 17.6691 101.805 17.698ZM101.854 23.7232H99.1999V19.4379H101.854C102.139 19.432 102.422 19.4831 102.687 19.5881C102.952 19.6931 103.194 19.85 103.398 20.0495C103.601 20.2491 103.763 20.4873 103.874 20.7502C103.984 21.0131 104.041 21.2954 104.041 21.5806C104.041 21.8657 103.984 22.1481 103.874 22.411C103.763 22.6738 103.601 22.9121 103.398 23.1116C103.194 23.3111 102.952 23.468 102.687 23.5731C102.422 23.6781 102.139 23.7291 101.854 23.7232ZM113.385 21.9279C112.704 21.8882 112.026 22.0481 111.435 22.3881C110.844 22.7281 110.364 23.2333 110.056 23.8418L111.713 24.5334C111.877 24.2314 112.126 23.9838 112.428 23.821C112.731 23.6581 113.075 23.5871 113.417 23.6166C113.891 23.5704 114.363 23.7138 114.731 24.0152C115.099 24.3167 115.332 24.7517 115.38 25.2249V25.3536C114.78 25.0353 114.112 24.8696 113.433 24.8711C111.648 24.8711 109.831 25.8522 109.831 27.6857C109.848 28.0721 109.943 28.4511 110.11 28.8002C110.276 29.1493 110.511 29.4613 110.801 29.7178C111.09 29.9743 111.428 30.1701 111.795 30.2934C112.162 30.4168 112.549 30.4652 112.935 30.4359C113.405 30.4636 113.873 30.3648 114.292 30.1498C114.711 29.9348 115.064 29.6115 115.315 29.2136H115.38V30.1786H117.181V25.3858C117.181 23.1663 115.524 21.9279 113.385 21.9279ZM113.16 28.7793C112.549 28.7793 111.696 28.4738 111.696 27.7178C111.696 26.7529 112.758 26.3829 113.675 26.3829C114.27 26.3671 114.859 26.5115 115.38 26.8011C115.311 27.3434 115.049 27.8425 114.64 28.2061C114.232 28.5698 113.707 28.7734 113.16 28.7793ZM123.743 22.2013L121.604 27.6213H121.539L119.32 22.2013H117.31L120.639 29.7765L118.741 33.9903H120.687L125.818 22.2013H123.743ZM106.936 30.1994H108.801V17.698H106.936V30.1994Z" fill="white"/>
<path d="M10.4352 7.73727C10.1073 8.12935 9.9417 8.63197 9.97238 9.14217V31.2583C9.94161 31.7685 10.1072 32.2711 10.4352 32.6632L10.5092 32.7353L22.8982 20.3464V20.0541L10.5092 7.66467L10.4352 7.73727Z" fill="url(#paint0_linear_1695_9640)"/>
<path d="M27.0278 24.4778L22.8984 20.3464V20.0541L27.0288 15.9237L27.1219 15.9768L32.0147 18.7569C33.4123 19.5509 33.4123 20.8501 32.0147 21.6446L27.1219 24.4247L27.0278 24.4778Z" fill="url(#paint1_linear_1695_9640)"/>
<path d="M27.122 24.4242L22.8985 20.2003L10.4355 32.6632C10.7203 32.9144 11.084 33.058 11.4635 33.0692C11.843 33.0804 12.2145 32.9585 12.5136 32.7246L27.122 24.4242Z" fill="url(#paint2_linear_1695_9640)"/>
<path d="M27.122 15.9763L12.5136 7.67588C12.2145 7.44197 11.843 7.32006 11.4635 7.33128C11.084 7.34249 10.7203 7.48612 10.4355 7.73728L22.8985 20.2003L27.122 15.9763Z" fill="url(#paint3_linear_1695_9640)"/>
<path opacity="0.2" d="M27.0289 24.3312L12.5136 32.5785C12.2261 32.7974 11.8751 32.9169 11.5136 32.9188C11.1522 32.9207 10.8 32.805 10.51 32.5892L10.4355 32.6637L10.5095 32.7358L10.51 32.7353C10.7999 32.9512 11.1522 33.067 11.5136 33.0651C11.8751 33.0631 12.2261 32.9436 12.5136 32.7246L27.122 24.4242L27.0289 24.3312Z" fill="black"/>
<path opacity="0.12" d="M10.4352 32.5176C10.1073 32.1255 9.94171 31.6229 9.97236 31.1127V31.2588C9.94169 31.769 10.1073 32.2716 10.4352 32.6637L10.5097 32.5892L10.4352 32.5176Z" fill="black"/>
<path opacity="0.12" d="M32.0142 21.498L27.0283 24.3312L27.1214 24.4242L32.0142 21.6441C32.302 21.5192 32.5511 21.3194 32.7355 21.0655C32.9198 20.8117 33.0328 20.513 33.0625 20.2007C33.0007 20.4835 32.8737 20.7481 32.6917 20.9733C32.5098 21.1985 32.2778 21.3781 32.0142 21.498Z" fill="black"/>
<path opacity="0.25" d="M12.5136 7.82256L32.0148 18.9026C32.2784 19.0224 32.5105 19.2021 32.6925 19.4274C32.8744 19.6527 33.0013 19.9174 33.0631 20.2004C33.0335 19.8879 32.9207 19.5891 32.7363 19.3351C32.5519 19.0811 32.3027 18.8813 32.0148 18.7565L12.5136 7.67646C11.116 6.88236 9.97266 7.54196 9.97266 9.14276V9.28886C9.97266 7.68816 11.116 7.02856 12.5136 7.82256Z" fill="white"/>
</g>
<defs>
<linearGradient id="paint0_linear_1695_9640" x1="21.7995" y1="8.90898" x2="5.01711" y2="25.6914" gradientUnits="userSpaceOnUse">
<stop stop-color="#00A0FF"/>
<stop offset="0.00657" stop-color="#00A1FF"/>
<stop offset="0.2601" stop-color="#00BEFF"/>
<stop offset="0.5122" stop-color="#00D2FF"/>
<stop offset="0.7604" stop-color="#00DFFF"/>
<stop offset="1" stop-color="#00E3FF"/>
</linearGradient>
<linearGradient id="paint1_linear_1695_9640" x1="33.8344" y1="20.2008" x2="9.63752" y2="20.2008" gradientUnits="userSpaceOnUse">
<stop stop-color="#FFE000"/>
<stop offset="0.4087" stop-color="#FFBD00"/>
<stop offset="0.7754" stop-color="#FFA500"/>
<stop offset="1" stop-color="#FF9C00"/>
</linearGradient>
<linearGradient id="paint2_linear_1695_9640" x1="24.8271" y1="22.4954" x2="2.06882" y2="45.2537" gradientUnits="userSpaceOnUse">
<stop stop-color="#FF3A44"/>
<stop offset="1" stop-color="#C31162"/>
</linearGradient>
<linearGradient id="paint3_linear_1695_9640" x1="7.29748" y1="0.375456" x2="17.46" y2="10.538" gradientUnits="userSpaceOnUse">
<stop stop-color="#32A071"/>
<stop offset="0.0685" stop-color="#2DA771"/>
<stop offset="0.4762" stop-color="#15CF74"/>
<stop offset="0.8009" stop-color="#06E775"/>
<stop offset="1" stop-color="#00F076"/>
</linearGradient>
<clipPath id="clip0_1695_9640">
<rect width="135" height="40.0002" fill="white" transform="translate(0 0.199219)"/>
</clipPath>
</defs>
</svg>
