<svg width="130" height="118" viewBox="0 0 130 118" fill="none" xmlns="http://www.w3.org/2000/svg">
<path d="M83.4902 37.617V9.58756H127.435V37.617H83.4902Z" fill="#FF9201"/>
<path d="M127.435 37.6169L109.081 23.4024C106.838 21.8603 103.868 21.8521 101.617 23.3804C95.3098 27.6618 83.4902 37.6169 83.4902 37.6169H127.435Z" fill="#BCDCFF"/>
<path d="M102.336 22.9685H102.207L83.4893 9.59187L83.49 37.6167C83.49 37.6167 95.3095 27.6616 101.616 23.3803C101.848 23.2232 102.091 23.093 102.336 22.9685Z" fill="#A7D0FE"/>
<path d="M108.718 22.9687H108.333C108.588 23.0989 108.84 23.2372 109.08 23.4024L127.435 37.617V9.59207L108.718 22.9687Z" fill="#A7D0FE"/>
<path d="M127.434 9.59206L109.08 23.8066C106.837 25.3487 103.867 25.3569 101.616 23.8286C95.3088 19.5472 83.4893 9.59206 83.4893 9.59206H127.434Z" fill="white"/>
<g clip-path="url(#clip0_1814_8347)">
<path d="M109.786 46.2697L76.1654 13.4027C71.9677 9.29811 65.2081 9.29811 61.0105 13.4027L27.3896 46.2697V98.825H109.786V46.2697Z" fill="#FF9201"/>
<rect x="39.0879" y="22.125" width="59" height="76.7" rx="4" fill="white"/>
<g clip-path="url(#clip1_1814_8347)">
<path fill-rule="evenodd" clip-rule="evenodd" d="M64.3379 61.825C68.48 61.825 71.8379 58.4671 71.8379 54.325C71.8379 50.1828 68.48 46.825 64.3379 46.825C60.1958 46.825 56.8379 50.1828 56.8379 54.325C56.8379 58.4671 60.1958 61.825 64.3379 61.825ZM64.3379 66.325C70.9653 66.325 76.3379 60.9524 76.3379 54.325C76.3379 47.6975 70.9653 42.325 64.3379 42.325C57.7105 42.325 52.3379 47.6975 52.3379 54.325C52.3379 60.9524 57.7105 66.325 64.3379 66.325Z" fill="#2EC5CE"/>
<rect x="80.3379" y="47.325" width="36" height="6" rx="0.5" fill="#2EC5CE"/>
<rect opacity="0.4" x="80.3379" y="56.325" width="16" height="5" rx="0.5" fill="#2EC5CE"/>
</g>
<path d="M109.786 98.8249L75.3719 72.1727C71.1666 69.2812 65.5988 69.2659 61.3767 72.1315C49.5513 80.159 27.3896 98.8249 27.3896 98.8249H109.786Z" fill="#FFDC81"/>
<path d="M62.7256 71.3595H62.4845L27.3896 46.9457V98.825C27.3896 98.825 49.5513 80.1591 61.3752 72.1316C61.81 71.8371 62.2663 71.5929 62.7256 71.3595Z" fill="#FFCA00"/>
<path d="M74.6915 71.3595H73.9697C74.4473 71.6036 74.9203 71.863 75.3705 72.1728L109.786 98.825V46.9457L74.6915 71.3595Z" fill="#FFB800"/>
</g>
<path d="M1.62793 108.417V80.3876H45.5728V108.417H1.62793Z" fill="#FF9201"/>
<path d="M45.5728 108.417L27.2185 94.2024C24.9757 92.6603 22.0061 92.6521 19.7544 94.1804C13.4475 98.4618 1.62793 108.417 1.62793 108.417H45.5728Z" fill="#BCDCFF"/>
<path d="M20.4735 93.7685H20.3449L1.62695 80.3919L1.62767 108.417C1.62767 108.417 13.4472 98.4616 19.7533 94.1803C19.9852 94.0232 20.2285 93.893 20.4735 93.7685Z" fill="#A7D0FE"/>
<path d="M26.8556 93.7687H26.4707C26.7254 93.8989 26.9777 94.0373 27.2178 94.2025L45.5729 108.417V80.3921L26.8556 93.7687Z" fill="#A7D0FE"/>
<path d="M45.5718 80.3921L27.2175 94.6066C24.9747 96.1487 22.0051 96.1569 19.7534 94.6286C13.4465 90.3472 1.62695 80.3921 1.62695 80.3921H45.5718Z" fill="white"/>
<circle cx="106.937" cy="89.9748" r="17.7" fill="white"/>
<g opacity="0.4">
<path d="M111.363 84.5955C111.363 87.2105 109.24 89.3304 106.622 89.3304C104.003 89.3304 101.881 87.2105 101.881 84.5955C101.881 81.9805 104.003 79.8606 106.622 79.8606C109.24 79.8606 111.363 81.9805 111.363 84.5955Z" fill="#2EC5CE"/>
<path d="M115.788 100.063C115.788 100.063 109.824 100.122 105.99 100.063C102.894 100.015 98.0879 100.063 98.0879 100.063C98.0879 100.063 99.3522 90.5931 106.938 90.5931C114.524 90.5931 115.788 100.063 115.788 100.063Z" fill="#2EC5CE"/>
</g>
<circle cx="120.212" cy="76.6996" r="7.375" fill="#2EC5CE"/>
<path fill-rule="evenodd" clip-rule="evenodd" d="M120.212 73.2579C120.45 73.2579 120.642 73.4506 120.642 73.6882V76.2694H123.224C123.461 76.2694 123.654 76.462 123.654 76.6996C123.654 76.9372 123.461 77.1298 123.224 77.1298H120.642V79.7111C120.642 79.9487 120.45 80.1413 120.212 80.1413C119.975 80.1413 119.782 79.9487 119.782 79.7111V77.1298H117.201C116.963 77.1298 116.771 76.9372 116.771 76.6996C116.771 76.462 116.963 76.2694 117.201 76.2694H119.782V73.6882C119.782 73.4506 119.975 73.2579 120.212 73.2579Z" fill="white"/>
<defs>
<clipPath id="clip0_1814_8347">
<rect width="88.5" height="88.5" fill="white" transform="translate(24.3379 10.325)"/>
</clipPath>
<clipPath id="clip1_1814_8347">
<rect width="64" height="24" fill="white" transform="translate(52.3379 42.325)"/>
</clipPath>
</defs>
</svg>
