<svg width="192" height="189" viewBox="0 0 192 189" fill="none" xmlns="http://www.w3.org/2000/svg">
<path d="M28.4505 188.186C-3.87512 188.19 -35.4756 177.185 -62.3547 156.563C-89.2338 135.941 -110.184 106.629 -122.556 72.3323C-134.928 38.0361 -138.166 0.296768 -131.86 -36.1129C-125.555 -72.5225 -109.989 -105.967 -87.1313 -132.217C-64.2737 -158.467 -35.151 -176.342 -3.44641 -183.584C28.2582 -190.825 61.1207 -187.107 90.985 -172.899C120.849 -158.691 146.374 -134.632 164.331 -103.764C182.288 -72.8958 191.871 -36.6057 191.868 0.517059C191.814 50.2709 174.579 97.9691 143.944 133.15C113.309 168.332 71.7749 188.124 28.4505 188.186ZM28.4505 -150.166C2.49937 -150.166 -22.8689 -141.328 -44.4464 -124.771C-66.0239 -108.214 -82.8416 -84.6804 -92.7727 -57.1467C-102.704 -29.613 -105.302 0.68428 -100.239 29.9139C-95.1766 59.1435 -82.6799 85.9927 -64.3298 107.066C-45.9796 128.139 -22.6 142.491 2.8524 148.305C28.3048 154.119 54.687 151.135 78.6627 139.73C102.638 128.325 123.131 109.012 137.548 84.232C151.966 59.4523 159.661 30.3193 159.661 0.517059C159.659 -39.4458 145.835 -77.7712 121.228 -106.029C96.622 -134.287 63.2491 -150.163 28.4505 -150.166Z" fill="#B8E3DB" fill-opacity="0.2"/>
</svg>
