<svg width="285" height="310" viewBox="0 0 285 310" fill="none" xmlns="http://www.w3.org/2000/svg">
<path d="M163.45 309.917C131.125 309.921 99.5244 298.916 72.6453 278.294C45.7662 257.672 24.8159 228.359 12.4439 194.063C0.071924 159.767 -3.166 122.027 3.1396 85.6177C9.4452 49.2081 25.0111 15.7635 47.8687 -10.4862C70.7263 -36.736 99.849 -54.6119 131.554 -61.8533C163.258 -69.0947 196.121 -65.3764 225.985 -51.1685C255.849 -36.9605 281.374 -12.9011 299.331 17.9668C317.288 48.8348 326.871 85.1249 326.868 122.248C326.814 172.002 309.579 219.7 278.944 254.881C248.309 290.062 206.775 309.855 163.45 309.917ZM163.45 -28.4351C137.499 -28.4351 112.131 -19.5977 90.5536 -3.04047C68.9761 13.5168 52.1584 37.0502 42.2273 64.5839C32.2963 92.1176 29.6979 122.415 34.7607 151.644C39.8234 180.874 52.3201 207.723 70.6702 228.797C89.0204 249.87 112.4 264.221 137.852 270.035C163.305 275.849 189.687 272.865 213.663 261.461C237.638 250.056 258.131 230.742 272.548 205.963C286.966 181.183 294.661 152.05 294.661 122.248C294.659 82.2848 280.835 43.9594 256.228 15.7014C231.622 -12.5566 198.249 -28.4329 163.45 -28.4351Z" fill="#B8E3DB" fill-opacity="0.2"/>
</svg>
